<?xml version="1.0" standalone="no"?>
<!DOCTYPE svg PUBLIC "-//W3C//DTD SVG 20010904//EN"
 "http://www.w3.org/TR/2001/REC-SVG-20010904/DTD/svg10.dtd">
<svg version="1.0" xmlns="http://www.w3.org/2000/svg"
 width="326.000000pt" height="323.000000pt" viewBox="0 0 326.000000 323.000000"
 preserveAspectRatio="xMidYMid meet">

<g transform="translate(0.000000,323.000000) scale(0.100000,-0.100000)"
fill="#000000" stroke="none">
<path d="M1557 3143 c-4 -3 -7 -302 -7 -664 0 -456 -3 -660 -11 -664 -6 -4
-215 197 -475 456 -255 255 -468 465 -473 467 -12 4 -111 -100 -111 -118 -1
-8 207 -220 461 -471 277 -274 460 -462 457 -470 -4 -12 -116 -14 -666 -17
l-662 -2 -1 -53 c-2 -73 -1 -108 3 -113 3 -2 297 -5 656 -6 508 -2 654 -6 664
-16 10 -10 -78 -102 -450 -475 -254 -254 -462 -469 -462 -478 0 -18 93 -109
111 -109 6 0 218 206 470 458 252 251 466 458 474 460 13 3 15 -74 15 -662 l0
-666 90 0 90 0 0 734 c0 554 3 737 12 742 6 4 339 10 739 12 l728 5 6 41 c4
22 5 59 3 81 l-3 40 -660 5 c-579 4 -660 7 -663 20 -1 9 188 205 458 475 253
253 460 463 460 468 0 13 -101 117 -114 117 -6 0 -221 -210 -479 -467 -371
-371 -470 -465 -477 -453 -6 9 -10 273 -10 673 l0 657 -83 0 c-46 0 -87 -3
-90 -7z"/>
<path d="M1901 1306 c-28 -30 -51 -58 -51 -61 0 -13 829 -835 842 -835 8 0 38
25 68 55 l55 55 -420 420 c-231 231 -425 420 -431 420 -6 0 -34 -24 -63 -54z"/>
</g>
</svg>
